<?xml version="1.0" encoding="UTF-8"?>
<svg width="52px" height="52px" viewBox="0 0 52 52" version="1.1" xmlns="http://www.w3.org/2000/svg" xmlns:xlink="http://www.w3.org/1999/xlink">
    <!-- Generator: Sketch 61.2 (89653) - https://sketch.com -->
    <title>寄修</title>
    <desc>Created with Sketch.</desc>
    <g id="页面-5" stroke="none" stroke-width="1" fill="none" fill-rule="evenodd">
        <g id="寄修">
            <g id="编组-2备份-46">
                <g id="编组">
                    <rect id="矩形" x="0" y="0" width="52" height="52"></rect>
                </g>
            </g>
            <g id="Group备份-2" transform="translate(3.083333, 8.291667)" stroke="#000000">
                <path d="M0,0.000438595557 L20.8797285,0.000438595557 C20.8797285,0.000438595557 26.0416667,-0.051134817 26.0416667,5.37321573 L26.0416667,30.2083333" id="Stroke-1" stroke-linecap="round"></path>
                <path d="M7.29166667,30.2082602 L3.89723703,30.2082602 C3.89723703,30.2082602 0,30.2787737 0,26.0416667" id="Stroke-3" stroke-linecap="round"></path>
                <path d="M26.0416667,7.29166667 L37.5602729,7.29166667 C37.5602729,7.29166667 39.9125368,7.29166667 41.0217739,8.76219779 L44.9746476,14.147148 C44.9746476,14.147148 45.8333333,15.3514146 45.8333333,17.5842797 L45.8333333,25.6542167 C45.8333333,25.6542167 45.6083236,30.2083333 42.2806121,30.2083333 L41.221242,30.2083333" id="Stroke-7" stroke-linecap="round"></path>
                <path d="M34.3802409,7.29166667 L34.3802409,13.483767 C34.3802409,13.483767 34.0118427,18.75 39.4523908,18.75 L45.8333333,18.75" id="Stroke-9"></path>
                <path d="M17.7083333,30.2083333 C17.7083333,33.0859653 15.3765545,35.4166667 12.500694,35.4166667 C9.62344548,35.4166667 7.29166667,33.0859653 7.29166667,30.2083333 C7.29166667,27.3320896 9.62344548,25 12.500694,25 C15.3765545,25 17.7083333,27.3320896 17.7083333,30.2083333 Z" id="Stroke-11"></path>
                <path d="M40.625,30.2083333 C40.625,33.0859653 38.2932212,35.4166667 35.4173606,35.4166667 C32.5401121,35.4166667 30.2083333,33.0859653 30.2083333,30.2083333 C30.2083333,27.3320896 32.5401121,25 35.4173606,25 C38.2932212,25 40.625,27.3320896 40.625,30.2083333 Z" id="Stroke-13"></path>
                <line x1="6.11453482e-13" y1="8.85416667" x2="17.7083333" y2="8.85416667" id="Stroke-15" stroke-linecap="round"></line>
                <line x1="2.54268583e-13" y1="16.1458333" x2="13.5416667" y2="16.1458333" id="Stroke-17" stroke-linecap="round"></line>
                <line x1="30.2083333" y1="30.2083333" x2="17.7083333" y2="30.2083333" id="Stroke-5" stroke-linecap="round"></line>
            </g>
        </g>
    </g>
</svg>