<?xml version="1.0" encoding="UTF-8"?>
<svg width="60px" height="60px" viewBox="0 0 60 60" version="1.1" xmlns="http://www.w3.org/2000/svg" xmlns:xlink="http://www.w3.org/1999/xlink">
    <!-- Generator: Sketch 53.2 (72643) - https://sketchapp.com -->
    <title>分组 5</title>
    <desc>Created with Sketch.</desc>
    <defs>
        <rect id="path-1" x="0" y="5.68434189e-14" width="60" height="60"></rect>
    </defs>
    <g id="Page-2" stroke="none" stroke-width="1" fill="none" fill-rule="evenodd">
        <g id="matepad" transform="translate(-779.000000, -573.000000)">
            <g id="分组" transform="translate(779.000000, 573.000000)">
                <g id="分组-5" transform="translate(0.000000, 0.000000)">
                    <mask id="mask-2" fill="white">
                        <use xlink:href="#path-1"></use>
                    </mask>
                    <g id="Mask"></g>
                    <g id="编组-43" mask="url(#mask-2)">
                        <g transform="translate(15.000000, 3.000000)">
                            <g id="编组-4" stroke="none" fill-rule="evenodd" transform="translate(13.500000, 26.500000) rotate(-90.000000) translate(-13.500000, -26.500000) translate(-13.000000, 13.000000)">
                                <path d="M15.5865662,27 L1,27 C0.44771525,27 3.00204306e-13,26.5522847 2.98427949e-13,26 L2.98427949e-13,1 C2.98427949e-13,0.44771525 0.44771525,0 1,0 L1,0 L48,0 C48.5522847,0 49,0.44771525 49,1 L49,26 C49,26.5522847 48.5522847,27 48,27 L31.3619787,27" id="路径" stroke="#000000"></path>
                                <path d="M49,9 L52,9 C52.5522847,9 53,9.44771525 53,10 L53,18 C53,18.5522847 52.5522847,19 52,19 L49,19 L49,9 Z" id="矩形" stroke="#000000"></path>
                            </g>
                            <path d="M30.2822108,29.5980054 L33.5508303,29.5980054 C33.672619,29.5980054 33.7902204,29.6424565 33.8815597,29.7230147 C34.0886614,29.9056714 34.1084779,30.2216331 33.9258211,30.4287348 L27.374987,37.8562645 C27.3611721,37.8719283 27.3463894,37.886711 27.3307256,37.9005259 C27.1236239,38.0831827 26.8076623,38.0633662 26.6250055,37.8562645 L20.0741714,30.4287348 C19.9936132,30.3373955 19.9491622,30.2197941 19.9491622,30.0980054 C19.9491622,29.821863 20.1730198,29.5980054 20.4491622,29.5980054 L23.7177817,29.5980054 L23.7177817,22.5 C23.7177817,22.2238576 23.9416394,22 24.2177817,22 L29.7822108,22 C30.0583531,22 30.2822108,22.2238576 30.2822108,22.5 L30.2822108,29.5980054 Z" id="形状结合备份-2" stroke="#000000"></path>
                        </g>
                    </g>
                </g>
            </g>
        </g>
    </g>
</svg>